PathFileType	4	(X/Y/Z)	48_2_40_p0_0-450.trc
DataRate	CameraRate	NumFrames	NumMarkers	Units	OrigDataRate	OrigDataStartFrame	OrigNumFrames
56.0	56.0	6	27	m	56.0	0	451
Frame#	Time	RHip			RKnee			RAnkle			RBigToe			RSmallToe			RHeel			LHip			LKnee			LAnkle			LBigToe			LSmallToe			LHeel			Neck			Head			Nose			RShoulder			RElbow			RWrist			RThumb			RIndex			RPinky			LShoulder			LElbow			LWrist			LThumb			LIndex			LPinky			
		X1	Y1	Z1	X2	Y2	Z2	X3	Y3	Z3	X4	Y4	Z4	X5	Y5	Z5	X6	Y6	Z6	X7	Y7	Z7	X8	Y8	Z8	X9	Y9	Z9	X10	Y10	Z10	X11	Y11	Z11	X12	Y12	Z12	X13	Y13	Z13	X14	Y14	Z14	X15	Y15	Z15	X16	Y16	Z16	X17	Y17	Z17	X18	Y18	Z18	X19	Y19	Z19	X20	Y20	Z20	X21	Y21	Z21	X22	Y22	Z22	X23	Y23	Z23	X24	Y24	Z24	X25	Y25	Z25	X26	Y26	Z26	X27	Y27	Z27	
0	0.0	0.2017677877620286	0.501133696137255	0.7109348067560235	0.16171230744220683	0.5898073412084366	1.1542755325904228	0.14313762612068168	0.7001274253422725	1.5511232513970448	0.09745991684367455	0.4735112870394385	1.5527225159218911	0.16391866342353378	0.4847458087508562	1.557751637361307	0.13370471758200783	0.7719686621710763	1.5940225614074752	-0.03353092394693381	0.5609053328335597	0.7210170338791416	-0.03606559136651695	0.6354497616099143	1.1350844874763937	-0.023367444260051034	0.6969075112387434	1.52389739313552	-0.056041328971326444	0.47919061465910373	1.5235512922421819	-0.10223169378731388	0.5425175383279442	1.5409682559242381	-0.008213096471332294	0.7661622981679127	1.5874417234643823	0.09568188403243665	0.47169733757615545	0.16704841149560967	0.10489005898496066	0.4093492873635711	-0.08272495161777238	0.06543608072653907	0.32190000393822515	0.058617358370950064	0.2422296799355206	0.41614907685780805	0.26495916726880253	0.2719959878202469	0.3767913025566801	0.5086738829012041	0.09707465900265873	0.34991124055603284	0.6618984331862076	-0.0031996579000812485	0.31504942891332144	0.7233388016039158	-0.01665849609579015	0.3428183266369123	0.7325780074094682	0.021500512674408664	0.41355076418079795	0.7767267145530071	-0.06925760602065337	0.46750798251532744	0.2514308003090478	-0.1071598022185101	0.4610722481442311	0.4874876070981823	-0.024737821390152463	0.3641679435622862	0.6480542019534079	0.046223398286168296	0.33754197905016803	0.7290006443147498	0.04244670013814502	0.3372014270232388	0.7437286713878373	0.02329070249206571	0.33283239369778767	0.7490571434194105
1	0.017857142857142856	0.20017316557363762	0.5182460858056002	0.7147143600951057	0.16134139104787723	0.5889910221072411	1.1576489770255054	0.1302923599790977	0.7029971085116922	1.551549703206596	0.0987403372333384	0.4736022261739982	1.5480540165540588	0.16195138785041338	0.5018161908690347	1.5653042280475447	0.1257455561668651	0.7763669787760686	1.595205705345966	-0.03337066521935499	0.5617693795263362	0.7174420430785787	-0.03706768145366472	0.6359083282539981	1.139673648922336	-0.026802411835955622	0.6855173335304809	1.5237879084329677	-0.06199156767711062	0.4795443084319344	1.5263384021933666	-0.10317094121995364	0.544355323833961	1.54069070081	-0.011413126749510989	0.7554574691422935	1.5854602912566984	0.09569499347872569	0.47168797802625745	0.1670662313849567	0.10497940830089039	0.4087968166774627	-0.08290630485734567	0.0737575818395073	0.3333085343386976	0.0586454786797489	0.24618504062188584	0.4169946940263554	0.2650976308517225	0.2721006461498991	0.37731717691021666	0.5086997731979673	0.09714948314655553	0.3499688985490962	0.6617642930769638	0.00785452818806304	0.3142124506472399	0.7239340376448176	-0.005851739031964797	0.3404329011834565	0.7290494148396194	0.02397151992606817	0.39889512106566855	0.7686770300995468	-0.06847744344563464	0.46750417229222363	0.2446071900856164	-0.1071518649587261	0.4608596085830323	0.4836191330903329	-0.0217530009864404	0.35121707230625815	0.6456788412226349	0.04970066594001898	0.33869044132976966	0.7292385603804681	0.04556844331519477	0.33734122765572916	0.7400872787021304	0.017786354522252402	0.31922917452453614	0.7382120710756963
2	0.03571428571428571	0.19969943080253338	0.5168377108019488	0.7099441011452616	0.16057384395889204	0.5874643049949684	1.1530237880674992	0.1381094233516282	0.6991650823910661	1.5503567672036411	0.09863618871311279	0.47339212005483805	1.5483277673759894	0.16163444593068169	0.5015193206505014	1.5654781261382593	0.13366629144532466	0.7723146626336581	1.5941507197886073	-0.03346684345319279	0.5620892125484824	0.7173084162235437	-0.037087605304984464	0.6359312450479955	1.1395909652753333	-0.027100952831235148	0.6853008307132725	1.523621276580013	-0.0619524187891517	0.4797256600808247	1.5263170855069903	-0.1031627865462143	0.5445065961097892	1.5406084982817607	-0.008437755697268122	0.7662894699672714	1.5878617060471727	0.09525175105065246	0.4715182143133732	0.17031798578994067	0.1050092267721478	0.40870832805832874	-0.0829293292491961	0.07369517113911028	0.33323171858704415	0.05863733821213977	0.24628005125256522	0.4171253301077299	0.2651310131409965	0.2721109553373454	0.377251714588678	0.5085967005639438	0.09747924835332407	0.350357641230955	0.6617609836389604	-0.00037770162803024053	0.3133336342330698	0.7189344816569726	-0.013317943254600787	0.341365174585025	0.7286734818135897	0.021003417617664378	0.4121640797541794	0.7711897202935714	-0.0689121759949859	0.4675717506887593	0.24787243035676218	-0.107116905023396	0.460823169637234	0.48364282518510504	-0.024466803482459287	0.3645274199509944	0.6481223850979115	0.04969013816184352	0.3388669429019561	0.7295664132388313	0.04617702683135405	0.3387795775416003	0.7442162163946532	0.02278856327848362	0.3316878387893273	0.7412655683198963
3	0.05357142857142857	0.20031240345664997	0.518023172650458	0.7143441765207269	0.16139378822225042	0.5892040447127485	1.1577424867082586	0.143075330190359	0.7005615815948881	1.5513073933491421	0.09861608816737344	0.4732616147095874	1.548166216258192	0.1640314213374915	0.48497178960234205	1.5576138173933785	0.13377654765938504	0.7725255779898124	1.5941928284637434	-0.033374100968792335	0.5621719955982505	0.7174968750240287	-0.03293416546304437	0.6370998883426303	1.1402680905282256	-0.02243818485828793	0.6999807553847026	1.5305453482711406	-0.06193947995010209	0.4794315041049414	1.5264357267930322	-0.099123216999503	0.5587137207640771	1.5474608573806568	-0.007513414195352222	0.7694337958624611	1.593140879377453	0.09535164854267865	0.4716078612507687	0.17036847683375883	0.10499083145403679	0.4089864617542485	-0.08285114951713925	0.07367866995691112	0.33326786202878617	0.05865860087184064	0.24620953727981149	0.4169674454185829	0.26507261760751977	0.272130524962621	0.3771418315816881	0.5085900515913123	0.09947311688133026	0.3748812624828821	0.6665563856801185	0.0029524650670720953	0.3007694381181471	0.7163486335476671	-0.006057133388193008	0.3287368220761853	0.7263535766846891	0.025691982102230802	0.41396860796883095	0.7766450087747857	-0.06847918385902291	0.46793249536913945	0.2482232472583943	-0.10652069275489852	0.460810378688548	0.48036007994072955	-0.02431252226422564	0.36480283599697855	0.6482034714532707	0.049848949784748305	0.3389027395439324	0.7298243814270536	0.04622532095012493	0.3390614243117831	0.7414164414619407	0.027389747916174767	0.3432173541710799	0.7441695340262463
4	0.07142857142857142	0.19980050473730676	0.5163421999903619	0.7096286699893026	0.16150504867531632	0.5891711881224218	1.1579008628545575	0.13825617069641927	0.6991807894881874	1.5504673919821652	0.09855244460991851	0.47338496508966915	1.5488017321804783	0.16484218234380343	0.4867812027672515	1.5630458431178138	0.13383443916524654	0.7721352200915218	1.5944329801541033	-0.03340617025824532	0.5617822590149655	0.7173114176159651	-0.03294112695266542	0.6371218445950924	1.1403334974818589	-0.026857700551155245	0.6854990963487556	1.523655735232224	-0.06088850747705733	0.4794397340484496	1.5227951320025002	-0.098060926323585	0.558328885724509	1.5436221644041377	-0.007682969805573692	0.7680824177694817	1.591772403132016	0.09532498295007198	0.4716938884880623	0.1704921756251551	0.10723953160150966	0.3960731839881864	-0.08203253252930207	0.07367846807787244	0.3333525865705663	0.058638919506064424	0.24621309620787127	0.41685630266854046	0.26182870628197735	0.2722078446965674	0.3773069658307427	0.5085457258569306	0.0994853980245786	0.37486899754279424	0.6665008333482001	0.008016812284801056	0.31392847531074675	0.7238963675671046	-0.00983537981180875	0.328505244633051	0.726139402568466	0.025893738131727934	0.4263206076305464	0.7791954331922678	-0.06859596054692028	0.46786563417754984	0.248280555165264	-0.10732112375261131	0.45924977003065337	0.47963347290736985	-0.02447478765425233	0.3643377150810873	0.6480351448076559	0.049688067097826964	0.33885531617661674	0.7296162835683861	0.046239378897114485	0.33893017750233884	0.7441629040661725	0.02272723370166557	0.3315733833930489	0.7413245929936273
5	0.08928571428571429	0.2076218607842084	0.5155693124524625	0.7142596395397346	0.15755927534781872	0.5884087676823191	1.1574934353862776	0.1442530109769421	0.7003395789499768	1.5470756972804869	0.099478078244691	0.4749362452149511	1.5540515938080648	0.1647320993527366	0.4862912748390898	1.5629688173361058	0.1339109306411004	0.7724686603917945	1.5944767860211906	-0.029171986286260762	0.5620889253708424	0.7174964064814287	-0.03699822283927783	0.6359393601897798	1.1397408375387168	-0.025717430070463523	0.6842571508550491	1.5183885192352982	-0.056930496119702	0.4927125276752666	1.5298412322966555	-0.10184075145154982	0.5721932976338807	1.5549751745881126	-0.01142650497788136	0.7556493429351062	1.5853497497494025	0.09534885234550725	0.4715705707704414	0.17041249623005056	0.10722096763289352	0.3961072344763471	-0.08202657932471327	0.06932004204942119	0.3226113041331883	0.05877098439561592	0.24649869504187927	0.41695438691994025	0.26112588186109326	0.2703053245914147	0.3913531882253072	0.5103207523236488	0.09856556171680898	0.3730671412854273	0.6628700128744818	0.013056107729285747	0.32659464642587593	0.7274335903018166	0.00239205040974023	0.34050726054375596	0.7337276534392361	0.025944136186623758	0.4266329784222187	0.779828260276852	-0.06895544907130986	0.467655993654997	0.2514929862439592	-0.10703761693354885	0.4603194226624335	0.4836729635854149	-0.024778798697113885	0.3638722361371478	0.6478622737620343	0.05469958933460358	0.3495046524602182	0.7317286042433889	0.05093587216307059	0.34951649347274427	0.7464964183183478	0.017919433206865204	0.31985346325522285	0.7386497409913382
